<svg id="Capa_1" enable-background="new 0 0 512 512" height="512" viewBox="0 0 512 512" width="512" xmlns="http://www.w3.org/2000/svg" xmlns:xlink="http://www.w3.org/1999/xlink"><linearGradient id="SVGID_1_" gradientUnits="userSpaceOnUse" x1="256" x2="256" y1="512" y2="0"><stop offset="0" stop-color="#00b59c"/><stop offset="1" stop-color="#9cffac"/></linearGradient><linearGradient id="SVGID_00000007407359665547393730000009948686893099154102_" gradientUnits="userSpaceOnUse" x1="256" x2="256" y1="270" y2="120"><stop offset="0" stop-color="#c3ffe8"/><stop offset=".9973" stop-color="#f0fff4"/></linearGradient><g><path d="m256 512c-4.717 0-9.17-2.227-12.012-6.006l-144.111-194.246c-25.43-33.94-38.877-74.311-38.877-116.748 0-107.52 87.48-195 195-195s195 87.48 195 195c0 42.437-13.447 82.808-38.877 116.748l-144.111 194.246c-2.842 3.779-7.295 6.006-12.012 6.006z" fill="url(#SVGID_1_)"/><path d="m256 270c-41.367 0-75-33.647-75-75s33.633-75 75-75 75 33.647 75 75-33.633 75-75 75z" fill="url(#SVGID_00000007407359665547393730000009948686893099154102_)"/></g></svg>